<svg xmlns="http://www.w3.org/2000/svg" xmlns:xlink="http://www.w3.org/1999/xlink" width="72.19999694824219" height="23.5" viewBox="0 0 72.19999694824219 23.5" fill="none">
<g >
<path     fill="url(#linear_fill_0_4_0)"  d="M7.35001 13.05Q7.325 13.475 7.3125 13.875Q7.3 14.275 7.25 14.675Q7.7 15.15 8.2375 15.75Q8.77499 16.35 9.33749 16.9875Q9.89999 17.625 10.425 18.25Q10.95 18.875 11.375 19.375L11.375 2.075L14.475 2.075L14.475 2.77499L19.2 2.77499Q20.25 2.77499 20.8375 3.3875Q21.425 4 21.425 5.05L21.425 22.275L18.3 22.275L18.3 21L14.475 21L14.475 22.275L11.375 22.275L11.375 19.675L8.95 21.525Q8.425 20.875 7.8125 20.125Q7.2 19.375 6.55 18.625Q5.875 20.775 4.575 21.875Q3.27499 22.975 1.14999 22.975L0.0500031 22.975L0.0500031 19.85L1.14999 19.85Q2.52499 19.85 3.28751 18.1Q4.05 16.35 4.25 13.05L0.0500031 13.05L0.0500031 9.95L4.3 9.95L4.3 5.89999L4.2 5.89999Q3.875 7.02499 3 7.5125Q2.125 8 0.774994 8L0 8L0 5.125L0.574997 5.125Q0.850006 5.125 1.10001 4.89999Q1.35001 4.675 1.35001 4.2L1.35001 0.949997L4.39999 0.949997L4.39999 2.8L10.4 2.8L10.4 5.89999L7.39999 5.89999L7.39999 9.95L10.825 9.95L10.825 13.05L7.35001 13.05ZM14.475 5.7L14.475 18.15L18.3 18.15L18.3 5.7L14.475 5.7ZM42.925 14.075L36.175 14.075L36.175 14.825L33.1 14.825L33.1 1.3L36.175 1.3L36.175 1.95L42.95 1.95Q44.55 1.95 45.275 2.6625Q46 3.375 46 4.95L46 14.825L42.925 14.825L42.925 14.075ZM33.1 18.2Q33.025 18.275 32.6875 18.5375Q32.35 18.8 31.8875 19.1625Q31.425 19.525 30.9 19.95Q30.375 20.375 29.9 20.775Q29.475 21.125 29.0125 21.175Q28.55 21.225 28.1625 21.025Q27.775 20.825 27.525 20.425Q27.275 20.025 27.275 19.5L27.275 11.225L25.05 11.225L25.05 8.175L27.575 8.175Q28.325 8.175 28.8375 8.2875Q29.35 8.39999 29.6875 8.6875Q30.025 8.975 30.175 9.4875Q30.325 10 30.325 10.775L30.325 16.425L32.225 14.825L33.1 18.2ZM36.175 4.95L36.175 11.075L42.925 11.075L42.925 4.95L36.175 4.95ZM38.25 16.8Q37.7 17.7 37.075 18.625Q36.45 19.55 35.7875 20.4125Q35.125 21.275 34.4375 22.075Q33.75 22.875 33.1 23.5L30.525 21.175Q31.2 20.575 31.925 19.75Q32.65 18.925 33.3375 18.0625Q34.025 17.2 34.6125 16.4125Q35.2 15.625 35.55 15.075L38.25 16.8ZM45.25 23.375Q44.275 21.8 43.0875 20.075Q41.9 18.35 40.75 16.875L43.175 14.95Q43.775 15.7 44.4125 16.525Q45.05 17.35 45.6875 18.175Q46.325 19 46.925 19.8Q47.525 20.6 48.05 21.325L45.25 23.375ZM29.3 7.175Q28.975 6.77499 28.5125 6.1875Q28.05 5.6 27.5625 4.9875Q27.075 4.375 26.6125 3.7875Q26.15 3.2 25.825 2.825L28.1 0.924995Q28.425 1.3 28.8875 1.83749Q29.35 2.375 29.8375 2.95Q30.325 3.52499 30.775 4.1Q31.225 4.675 31.575 5.1L29.3 7.175ZM54.7 6.925Q54.275 6.575 53.6625 6.1Q53.05 5.625 52.4125 5.1375Q51.775 4.64999 51.1875 4.21249Q50.6 3.77499 50.225 3.5L52.025 1.05Q52.425 1.325 52.9625 1.71249Q53.5 2.1 54.0875 2.52499Q54.675 2.95 55.2625 3.375Q55.85 3.8 56.35 4.175L56.35 3.125L61.725 3.125Q61.4 2.625 61.0875 2.1625Q60.775 1.7 60.625 1.5L63.625 -3.8147e-06Q63.725 0.149998 63.975 0.5Q64.225 0.849998 64.5 1.27499Q64.775 1.7 65.0375 2.1125Q65.3 2.52499 65.45 2.75L64.65 3.125L71.475 3.125L71.475 6.075L67.925 6.075L71.975 11L69.575 12.85Q69.35 12.575 69.1 12.225Q68.85 11.875 68.55 11.5Q67.375 11.55 65.8875 11.6125Q64.4 11.675 62.9125 11.7625Q61.425 11.85 60.0875 11.925Q58.75 12 57.875 12.075Q57.125 12.125 56.7 11.7625Q56.275 11.4 56.1375 10.8625Q56 10.325 56.1625 9.75Q56.325 9.175 56.75 8.8Q57.45 8.2 58.125 7.5Q58.8 6.8 59.45 6.075L56.35 6.075L56.35 4.7L54.7 6.925ZM72.2 22.95L69.85 22.95Q68.025 22.95 67.2 22.175Q66.375 21.4 66.375 19.475L66.375 12.525L69.325 12.525L69.325 18.775Q69.325 19.5 69.5625 19.725Q69.8 19.95 70.525 19.95L72.2 19.95L72.2 22.95ZM60.1 12.525L60.1 14.475Q60.1 16.75 59.925 18.3875Q59.75 20.025 59.3 21.075Q58.85 22.125 58.075 22.625Q57.3 23.125 56.1 23.125L55.05 23.125L55.05 19.95L55.875 19.95Q56.05 19.95 56.25 19.7125Q56.45 19.475 56.625 18.875Q56.8 18.275 56.9125 17.25Q57.025 16.225 57.025 14.625L57.025 12.525L60.1 12.525ZM55.525 14.15Q55.425 14.375 55.225 15.0375Q55.025 15.7 54.75 16.575Q54.475 17.45 54.175 18.4375Q53.875 19.425 53.6 20.3125Q53.325 21.2 53.125 21.8875Q52.925 22.575 52.85 22.85L49.7 21.975Q49.825 21.7 50.0625 21.025Q50.3 20.35 50.5875 19.475Q50.875 18.6 51.2 17.6125Q51.525 16.625 51.7875 15.75Q52.05 14.875 52.2375 14.2125Q52.425 13.55 52.475 13.3L55.525 14.15ZM61.875 12.525L64.725 12.525L64.725 22.375L61.875 22.375L61.875 12.525ZM53.75 12.55Q53.325 12.225 52.7125 11.7375Q52.1 11.25 51.4625 10.75Q50.825 10.25 50.2125 9.7875Q49.6 9.325 49.2 9.02499L51 6.575Q51.475 6.89999 52.05 7.3Q52.625 7.7 53.2375 8.14999Q53.85 8.6 54.475 9.05Q55.1 9.5 55.65 9.89999L53.75 12.55ZM65.225 7.39999L67.1 6.075L63.5 6.075Q62.7 6.95 61.925 7.6875Q61.15 8.425 60.275 9.175L66.35 8.77499L65.225 7.39999Z">
</path>
</g>
<defs>
<linearGradient id="linear_fill_0_4_0" x1="42.60127258300781" y1="33.56300354003906" x2="42.60127258300781" y2="-63.25" gradientUnits="userSpaceOnUse">
<stop offset="0" stop-color="#FFFFFF"  />
<stop offset="0.8692" stop-color="#FAC084"  />
<stop offset="1" stop-color="#D4AF35"  />
</linearGradient>
</defs>
</svg>
